<svg width="1200" height="675" viewBox="0 0 1200 675" fill="none" xmlns="http://www.w3.org/2000/svg">
  <defs>
    <linearGradient id="bg" x1="0" y1="0" x2="1200" y2="675" gradientUnits="userSpaceOnUse">
      <stop stop-color="#F8FAFC"/>
      <stop offset="1" stop-color="#FFFFFF"/>
    </linearGradient>
    <linearGradient id="accent" x1="260" y1="170" x2="960" y2="500" gradientUnits="userSpaceOnUse">
      <stop stop-color="#64748B"/>
      <stop offset="1" stop-color="#0F172A"/>
    </linearGradient>
  </defs>
  <rect width="1200" height="675" rx="44" fill="url(#bg)"/>
  <circle cx="1030" cy="116" r="138" fill="#E2E8F0" fill-opacity="0.72"/>
  <circle cx="160" cy="560" r="166" fill="#CBD5E1" fill-opacity="0.38"/>
  <text x="76" y="116" fill="#334155" font-family="Arial, 'PingFang SC', 'Microsoft YaHei', sans-serif" font-size="26" font-weight="700" letter-spacing="4">DLINEAR</text>
  <text x="76" y="184" fill="#0F172A" font-family="Arial, 'PingFang SC', 'Microsoft YaHei', sans-serif" font-size="56" font-weight="700">线性模型也能很强</text>
  <text x="76" y="232" fill="#475569" font-family="Arial, 'PingFang SC', 'Microsoft YaHei', sans-serif" font-size="26">前提是把问题拆对</text>

  <rect x="78" y="300" width="170" height="90" rx="24" fill="#FFFFFF" stroke="#CBD5E1" stroke-width="2"/>
  <text x="102" y="354" fill="#0F172A" font-family="Arial, 'PingFang SC', 'Microsoft YaHei', sans-serif" font-size="24" font-weight="700">原始序列输入</text>

  <path d="M259 345H306" stroke="url(#accent)" stroke-width="6" stroke-linecap="round"/>
  <path d="M296 331L316 345L296 359" stroke="url(#accent)" stroke-width="6" stroke-linecap="round" stroke-linejoin="round"/>

  <rect x="320" y="278" width="220" height="140" rx="28" fill="#E2E8F0" stroke="#CBD5E1" stroke-width="2"/>
  <text x="366" y="338" fill="#0F172A" font-family="Arial, 'PingFang SC', 'Microsoft YaHei', sans-serif" font-size="28" font-weight="700">Decompose</text>
  <text x="362" y="374" fill="#0F172A" font-family="Arial, 'PingFang SC', 'Microsoft YaHei', sans-serif" font-size="22">趋势 / 季节性</text>

  <path d="M551 345H598" stroke="url(#accent)" stroke-width="6" stroke-linecap="round"/>
  <path d="M588 331L608 345L588 359" stroke="url(#accent)" stroke-width="6" stroke-linecap="round" stroke-linejoin="round"/>

  <rect x="620" y="258" width="190" height="110" rx="26" fill="#FFFFFF" stroke="#CBD5E1" stroke-width="2"/>
  <text x="668" y="320" fill="#0F172A" font-family="Arial, 'PingFang SC', 'Microsoft YaHei', sans-serif" font-size="24" font-weight="700">Trend</text>
  <rect x="620" y="388" width="190" height="110" rx="26" fill="#FFFFFF" stroke="#CBD5E1" stroke-width="2"/>
  <text x="642" y="450" fill="#0F172A" font-family="Arial, 'PingFang SC', 'Microsoft YaHei', sans-serif" font-size="24" font-weight="700">Seasonal</text>

  <path d="M825 345H872" stroke="url(#accent)" stroke-width="6" stroke-linecap="round"/>
  <path d="M862 331L882 345L862 359" stroke="url(#accent)" stroke-width="6" stroke-linecap="round" stroke-linejoin="round"/>

  <rect x="896" y="278" width="228" height="140" rx="28" fill="#0F172A"/>
  <text x="948" y="334" fill="#FFFFFF" font-family="Arial, 'PingFang SC', 'Microsoft YaHei', sans-serif" font-size="28" font-weight="700">Linear Head</text>
  <text x="946" y="372" fill="#E2E8F0" font-family="Arial, 'PingFang SC', 'Microsoft YaHei', sans-serif" font-size="22">直接做预测</text>
</svg>
