<svg width="1200" height="675" viewBox="0 0 1200 675" fill="none" xmlns="http://www.w3.org/2000/svg">
  <defs>
    <linearGradient id="bg" x1="0" y1="0" x2="1200" y2="675" gradientUnits="userSpaceOnUse">
      <stop stop-color="#FFF7ED"/>
      <stop offset="1" stop-color="#FFFFFF"/>
    </linearGradient>
    <linearGradient id="accent" x1="260" y1="170" x2="960" y2="500" gradientUnits="userSpaceOnUse">
      <stop stop-color="#F59E0B"/>
      <stop offset="1" stop-color="#C2410C"/>
    </linearGradient>
  </defs>
  <rect width="1200" height="675" rx="44" fill="url(#bg)"/>
  <circle cx="1020" cy="116" r="138" fill="#FDE68A" fill-opacity="0.55"/>
  <circle cx="160" cy="560" r="166" fill="#FED7AA" fill-opacity="0.38"/>
  <text x="76" y="116" fill="#D97706" font-family="Arial, 'PingFang SC', 'Microsoft YaHei', sans-serif" font-size="26" font-weight="700" letter-spacing="4">TIMESNET</text>
  <text x="76" y="184" fill="#0F172A" font-family="Arial, 'PingFang SC', 'Microsoft YaHei', sans-serif" font-size="56" font-weight="700">把时间序列摊成二维</text>
  <text x="76" y="232" fill="#475569" font-family="Arial, 'PingFang SC', 'Microsoft YaHei', sans-serif" font-size="26">先找周期，再看纹理</text>

  <rect x="78" y="300" width="170" height="90" rx="24" fill="#FFFFFF" stroke="#FCD34D" stroke-width="2"/>
  <text x="108" y="354" fill="#7C2D12" font-family="Arial, 'PingFang SC', 'Microsoft YaHei', sans-serif" font-size="24" font-weight="700">1D 时间序列</text>

  <path d="M259 345H306" stroke="url(#accent)" stroke-width="6" stroke-linecap="round"/>
  <path d="M296 331L316 345L296 359" stroke="url(#accent)" stroke-width="6" stroke-linecap="round" stroke-linejoin="round"/>

  <rect x="320" y="278" width="220" height="140" rx="28" fill="#FFEDD5" stroke="#FDBA74" stroke-width="2"/>
  <text x="364" y="338" fill="#9A3412" font-family="Arial, 'PingFang SC', 'Microsoft YaHei', sans-serif" font-size="28" font-weight="700">Period</text>
  <text x="344" y="374" fill="#9A3412" font-family="Arial, 'PingFang SC', 'Microsoft YaHei', sans-serif" font-size="22">从频域找周期</text>

  <path d="M551 345H598" stroke="url(#accent)" stroke-width="6" stroke-linecap="round"/>
  <path d="M588 331L608 345L588 359" stroke="url(#accent)" stroke-width="6" stroke-linecap="round" stroke-linejoin="round"/>

  <rect x="620" y="258" width="190" height="110" rx="26" fill="#FFFFFF" stroke="#FCD34D" stroke-width="2"/>
  <text x="659" y="320" fill="#7C2D12" font-family="Arial, 'PingFang SC', 'Microsoft YaHei', sans-serif" font-size="24" font-weight="700">2D Map</text>
  <rect x="620" y="388" width="190" height="110" rx="26" fill="#FFFFFF" stroke="#FCD34D" stroke-width="2"/>
  <text x="651" y="450" fill="#7C2D12" font-family="Arial, 'PingFang SC', 'Microsoft YaHei', sans-serif" font-size="24" font-weight="700">纹理变化</text>

  <path d="M825 345H872" stroke="url(#accent)" stroke-width="6" stroke-linecap="round"/>
  <path d="M862 331L882 345L862 359" stroke="url(#accent)" stroke-width="6" stroke-linecap="round" stroke-linejoin="round"/>

  <rect x="896" y="278" width="228" height="140" rx="28" fill="#C2410C"/>
  <text x="946" y="334" fill="#FFFFFF" font-family="Arial, 'PingFang SC', 'Microsoft YaHei', sans-serif" font-size="28" font-weight="700">TimesBlock</text>
  <text x="946" y="372" fill="#FFEDD5" font-family="Arial, 'PingFang SC', 'Microsoft YaHei', sans-serif" font-size="22">二维卷积提特征</text>
</svg>
