<svg width="1200" height="675" viewBox="0 0 1200 675" fill="none" xmlns="http://www.w3.org/2000/svg">
  <defs>
    <linearGradient id="bg" x1="0" y1="0" x2="1200" y2="675" gradientUnits="userSpaceOnUse">
      <stop stop-color="#EFF6FF"/>
      <stop offset="1" stop-color="#FFFFFF"/>
    </linearGradient>
    <linearGradient id="accent" x1="260" y1="170" x2="960" y2="500" gradientUnits="userSpaceOnUse">
      <stop stop-color="#3B82F6"/>
      <stop offset="1" stop-color="#1D4ED8"/>
    </linearGradient>
  </defs>
  <rect width="1200" height="675" rx="44" fill="url(#bg)"/>
  <circle cx="1030" cy="118" r="138" fill="#DBEAFE" fill-opacity="0.7"/>
  <circle cx="160" cy="560" r="166" fill="#BFDBFE" fill-opacity="0.38"/>
  <text x="76" y="116" fill="#2563EB" font-family="Arial, 'PingFang SC', 'Microsoft YaHei', sans-serif" font-size="26" font-weight="700" letter-spacing="4">INFORMER</text>
  <text x="76" y="184" fill="#0F172A" font-family="Arial, 'PingFang SC', 'Microsoft YaHei', sans-serif" font-size="56" font-weight="700">先把长序列压缩</text>
  <text x="76" y="232" fill="#475569" font-family="Arial, 'PingFang SC', 'Microsoft YaHei', sans-serif" font-size="26">先省算力，再谈高效注意力</text>

  <rect x="78" y="300" width="170" height="90" rx="24" fill="#FFFFFF" stroke="#BFDBFE" stroke-width="2"/>
  <text x="104" y="354" fill="#1E3A8A" font-family="Arial, 'PingFang SC', 'Microsoft YaHei', sans-serif" font-size="24" font-weight="700">长序列输入</text>

  <path d="M259 345H306" stroke="url(#accent)" stroke-width="6" stroke-linecap="round"/>
  <path d="M296 331L316 345L296 359" stroke="url(#accent)" stroke-width="6" stroke-linecap="round" stroke-linejoin="round"/>

  <rect x="320" y="278" width="220" height="140" rx="28" fill="#DBEAFE" stroke="#93C5FD" stroke-width="2"/>
  <text x="366" y="338" fill="#1E3A8A" font-family="Arial, 'PingFang SC', 'Microsoft YaHei', sans-serif" font-size="28" font-weight="700">ProbSparse</text>
  <text x="366" y="374" fill="#1E3A8A" font-family="Arial, 'PingFang SC', 'Microsoft YaHei', sans-serif" font-size="22">只看重要 query</text>

  <path d="M551 345H598" stroke="url(#accent)" stroke-width="6" stroke-linecap="round"/>
  <path d="M588 331L608 345L588 359" stroke="url(#accent)" stroke-width="6" stroke-linecap="round" stroke-linejoin="round"/>

  <rect x="620" y="258" width="190" height="100" rx="26" fill="#FFFFFF" stroke="#BFDBFE" stroke-width="2"/>
  <text x="667" y="318" fill="#1E3A8A" font-family="Arial, 'PingFang SC', 'Microsoft YaHei', sans-serif" font-size="24" font-weight="700">Distilling</text>
  <rect x="620" y="384" width="190" height="100" rx="26" fill="#FFFFFF" stroke="#BFDBFE" stroke-width="2"/>
  <text x="655" y="444" fill="#1E3A8A" font-family="Arial, 'PingFang SC', 'Microsoft YaHei', sans-serif" font-size="24" font-weight="700">Sequence ↓</text>

  <path d="M825 345H872" stroke="url(#accent)" stroke-width="6" stroke-linecap="round"/>
  <path d="M862 331L882 345L862 359" stroke="url(#accent)" stroke-width="6" stroke-linecap="round" stroke-linejoin="round"/>

  <rect x="896" y="278" width="228" height="140" rx="28" fill="#1D4ED8"/>
  <text x="946" y="334" fill="#FFFFFF" font-family="Arial, 'PingFang SC', 'Microsoft YaHei', sans-serif" font-size="28" font-weight="700">Decoder</text>
  <text x="946" y="372" fill="#DBEAFE" font-family="Arial, 'PingFang SC', 'Microsoft YaHei', sans-serif" font-size="22">一次性预测未来</text>
</svg>
